<svg width="1919" height="703" viewBox="0 0 1919 703" fill="none" xmlns="http://www.w3.org/2000/svg">
<path fill-rule="evenodd" clip-rule="evenodd" d="M1918 34H348V41.0082C458.751 46.9846 565.387 135.014 565.387 135.014C586.576 153.543 607.082 169.625 622.784 189.168C698.436 308.943 634.29 504.088 634.29 504.088C624.088 542.19 618.586 551.839 605.69 577.187C544.862 662.845 422.39 683.194 363.721 688H1918V34Z" fill="black"/>
<path d="M794.986 222.56C789.786 222.56 784.131 222.43 778.021 222.17C772.041 221.91 766.126 221.52 760.275 221C754.555 220.48 749.42 219.96 744.87 219.44V194.285C749.68 194.675 754.49 195.065 759.3 195.455C764.241 195.845 768.921 196.105 773.341 196.235C777.761 196.365 781.466 196.43 784.456 196.43C790.696 196.43 795.441 196.235 798.691 195.845C801.941 195.325 804.346 194.61 805.906 193.7C806.946 192.79 807.661 191.814 808.051 190.774C808.571 189.734 808.896 188.499 809.026 187.069C809.156 185.639 809.221 184.014 809.221 182.194C809.221 179.464 809.026 177.319 808.636 175.759C808.376 174.069 807.726 172.769 806.686 171.859C805.776 170.949 804.346 170.299 802.396 169.909C800.446 169.389 797.911 168.934 794.791 168.544L767.296 165.034C761.966 164.384 757.61 163.084 754.23 161.134C750.85 159.054 748.185 156.324 746.235 152.944C744.285 149.564 742.92 145.599 742.14 141.049C741.36 136.369 740.97 131.168 740.97 125.448C740.97 116.608 742.27 109.588 744.87 104.388C747.47 99.0579 751.045 95.0278 755.595 92.2978C760.275 89.4377 765.671 87.5527 771.781 86.6427C778.021 85.7326 784.781 85.2776 792.061 85.2776C797.261 85.2776 802.656 85.4726 808.246 85.8626C813.836 86.1227 819.102 86.5777 824.042 87.2277C828.982 87.7477 833.077 88.3977 836.327 89.1777V113.748C833.077 113.228 829.242 112.838 824.822 112.578C820.532 112.188 816.046 111.928 811.366 111.798C806.686 111.538 802.266 111.408 798.106 111.408C793.036 111.408 789.006 111.603 786.016 111.993C783.026 112.253 780.686 112.838 778.996 113.748C777.176 114.788 776.006 116.153 775.486 117.843C775.096 119.533 774.901 121.678 774.901 124.278C774.901 127.528 775.161 130.063 775.681 131.883C776.201 133.573 777.371 134.743 779.191 135.394C781.011 136.044 783.806 136.629 787.576 137.149L814.291 140.269C817.931 140.659 821.247 141.309 824.237 142.219C827.357 143.129 830.152 144.559 832.622 146.509C835.222 148.459 837.367 151.254 839.057 154.894C839.967 156.584 840.682 158.664 841.202 161.134C841.722 163.474 842.177 166.204 842.567 169.324C842.957 172.444 843.152 175.954 843.152 179.854C843.152 187.524 842.372 194.025 840.812 199.355C839.252 204.555 837.042 208.715 834.182 211.835C831.322 214.825 827.877 217.165 823.847 218.855C819.817 220.415 815.331 221.39 810.391 221.78C805.581 222.3 800.446 222.56 794.986 222.56Z" fill="#00EDFF"/>
<path d="M906.179 261.171C902.149 261.171 897.989 261.041 893.699 260.781C889.409 260.651 885.314 260.391 881.414 260.001C877.644 259.611 874.329 259.221 871.469 258.831V237.185C875.499 237.185 879.074 237.185 882.194 237.185C885.444 237.315 888.369 237.38 890.969 237.38C893.699 237.38 896.234 237.38 898.574 237.38C904.684 237.38 909.494 237.12 913.004 236.6C916.514 236.08 919.049 235.105 920.609 233.675C922.169 232.245 923.144 230.035 923.534 227.045C923.924 224.185 924.119 220.415 924.119 215.735V207.74H922.559C920.739 210.86 918.464 213.395 915.734 215.345C913.004 217.165 909.819 218.53 906.179 219.44C902.669 220.22 898.769 220.61 894.479 220.61C887.849 220.61 882.519 219.83 878.489 218.27C874.459 216.58 871.404 214.11 869.324 210.86C867.243 207.48 865.878 203.45 865.228 198.77C864.578 193.96 864.253 188.369 864.253 181.999V121.548H895.454V172.444C895.454 177.774 895.584 181.999 895.844 185.119C896.234 188.109 896.884 190.319 897.794 191.749C898.704 193.18 900.069 194.09 901.889 194.48C903.709 194.87 906.179 195.065 909.299 195.065C912.679 195.065 915.344 194.74 917.294 194.09C919.374 193.31 920.869 192.074 921.779 190.384C922.689 188.564 923.274 186.159 923.534 183.169C923.924 180.049 924.119 176.214 924.119 171.664V121.548H955.515V209.885C955.515 218.595 955.06 226.135 954.15 232.505C953.24 239.005 951.225 244.335 948.105 248.495C944.985 252.786 940.045 255.971 933.285 258.051C926.655 260.131 917.619 261.171 906.179 261.171ZM1018.08 222.56C1013.92 222.56 1009.37 222.43 1004.43 222.17C999.616 221.91 994.871 221.585 990.191 221.195C985.641 220.805 981.545 220.35 977.905 219.83V197.795C979.985 197.925 982.325 198.12 984.925 198.38C987.656 198.64 990.451 198.835 993.311 198.965C996.171 199.095 998.901 199.225 1001.5 199.355C1004.23 199.355 1006.7 199.355 1008.91 199.355C1015.02 199.355 1019.38 199.16 1021.98 198.77C1024.71 198.38 1026.4 197.6 1027.05 196.43C1027.83 195.13 1028.22 193.44 1028.22 191.359C1028.22 189.279 1027.96 187.784 1027.44 186.874C1027.05 185.964 1026.14 185.314 1024.71 184.924C1023.41 184.534 1021.13 184.144 1017.88 183.754L994.676 180.829C989.086 180.049 984.86 178.424 982 175.954C979.14 173.354 977.19 169.909 976.15 165.619C975.24 161.199 974.785 156.064 974.785 150.214C974.785 143.324 975.825 137.929 977.905 134.028C979.985 129.998 982.845 127.008 986.486 125.058C990.256 122.978 994.676 121.613 999.746 120.963C1004.95 120.313 1010.47 119.988 1016.32 119.988C1020.48 119.988 1024.77 120.118 1029.19 120.378C1033.61 120.638 1037.84 121.028 1041.87 121.548C1045.9 121.938 1049.21 122.393 1051.81 122.913V144.754C1048.56 144.494 1045.12 144.234 1041.48 143.974C1037.97 143.714 1034.59 143.519 1031.34 143.389C1028.09 143.259 1025.36 143.194 1023.15 143.194C1017.95 143.194 1013.92 143.324 1011.06 143.584C1008.33 143.844 1006.44 144.494 1005.4 145.534C1004.49 146.574 1004.04 148.264 1004.04 150.604C1004.04 152.424 1004.17 153.854 1004.43 154.894C1004.82 155.804 1005.66 156.454 1006.96 156.844C1008.26 157.234 1010.28 157.624 1013.01 158.014L1036.41 160.939C1040.83 161.459 1044.6 162.499 1047.72 164.059C1050.84 165.619 1053.18 168.414 1054.74 172.444C1056.43 176.474 1057.27 182.519 1057.27 190.579C1057.27 197.86 1056.3 203.645 1054.35 207.935C1052.53 212.095 1049.86 215.28 1046.35 217.49C1042.84 219.57 1038.68 220.935 1033.87 221.585C1029.19 222.235 1023.93 222.56 1018.08 222.56ZM1085.96 221V145.339H1067.82V121.548H1085.96V92.6878H1117.55V121.548H1139.2V145.339H1117.55V221H1085.96ZM1200.88 222.56C1191.52 222.56 1183.79 221.975 1177.68 220.805C1171.57 219.635 1166.69 217.815 1163.05 215.345C1159.54 212.745 1156.88 209.43 1155.06 205.4C1153.37 201.37 1152.26 196.56 1151.74 190.969C1151.35 185.379 1151.16 178.879 1151.16 171.469C1151.16 162.499 1151.55 154.764 1152.33 148.264C1153.24 141.764 1155.19 136.434 1158.18 132.273C1161.17 128.113 1165.78 125.058 1172.02 123.108C1178.39 121.028 1186.97 119.988 1197.76 119.988C1206.47 119.988 1213.56 120.638 1219.02 121.938C1224.48 123.108 1228.77 124.993 1231.89 127.593C1235.14 130.063 1237.41 133.313 1238.71 137.344C1240.14 141.374 1241.05 146.249 1241.44 151.969C1241.83 157.559 1242.03 164.059 1242.03 171.469V179.074H1182.16C1182.16 183.494 1182.36 187.069 1182.75 189.799C1183.14 192.4 1184.18 194.35 1185.87 195.65C1187.56 196.95 1190.16 197.86 1193.67 198.38C1197.18 198.77 1202.05 198.965 1208.29 198.965C1210.76 198.965 1213.69 198.9 1217.07 198.77C1220.45 198.64 1223.96 198.445 1227.6 198.185C1231.37 197.925 1234.88 197.665 1238.13 197.405V219.245C1235.27 219.895 1231.76 220.48 1227.6 221C1223.57 221.52 1219.21 221.91 1214.53 222.17C1209.85 222.43 1205.3 222.56 1200.88 222.56ZM1212.58 166.009V162.889C1212.58 158.209 1212.32 154.504 1211.8 151.774C1211.41 149.044 1210.63 147.029 1209.46 145.729C1208.42 144.299 1206.93 143.389 1204.98 142.999C1203.03 142.609 1200.56 142.414 1197.57 142.414C1194.19 142.414 1191.46 142.674 1189.38 143.194C1187.43 143.584 1185.93 144.494 1184.89 145.924C1183.85 147.354 1183.14 149.434 1182.75 152.164C1182.36 154.894 1182.16 158.469 1182.16 162.889H1215.9L1212.58 166.009ZM1263.02 221V121.548H1292.66L1293.44 133.638H1295.2C1297.02 130.258 1299.29 127.593 1302.02 125.643C1304.88 123.563 1308.07 122.133 1311.58 121.353C1315.09 120.443 1318.86 119.988 1322.89 119.988C1330.69 119.988 1336.6 121.093 1340.63 123.303C1344.66 125.383 1347.52 128.828 1349.21 133.638H1350.97C1352.92 130.258 1355.32 127.593 1358.18 125.643C1361.04 123.563 1364.23 122.133 1367.74 121.353C1371.38 120.443 1375.21 119.988 1379.24 119.988C1387.69 119.988 1393.93 121.483 1397.96 124.473C1402.12 127.463 1404.85 131.818 1406.15 137.539C1407.58 143.259 1408.3 150.344 1408.3 158.794V221H1377.1V168.349C1377.1 163.019 1376.9 158.859 1376.51 155.869C1376.25 152.749 1375.73 150.474 1374.95 149.044C1374.17 147.614 1372.94 146.769 1371.25 146.509C1369.56 146.119 1367.35 145.924 1364.62 145.924C1361.63 145.924 1359.22 146.314 1357.4 147.094C1355.58 147.744 1354.22 148.914 1353.31 150.604C1352.4 152.294 1351.81 154.634 1351.55 157.624C1351.42 160.614 1351.36 164.449 1351.36 169.129V221H1319.96V168.349C1319.96 163.019 1319.83 158.859 1319.57 155.869C1319.31 152.749 1318.73 150.474 1317.82 149.044C1317.04 147.614 1315.8 146.769 1314.11 146.509C1312.55 146.119 1310.41 145.924 1307.68 145.924C1304.69 145.924 1302.28 146.314 1300.46 147.094C1298.64 147.744 1297.28 148.914 1296.37 150.604C1295.46 152.294 1294.87 154.699 1294.61 157.819C1294.35 160.809 1294.22 164.579 1294.22 169.129V221H1263.02Z" fill="url(#paint0_linear_81_6216)"/>
<path d="M745.845 419V284.838H839.837V310.968H779.776V338.464H830.672V364.204H779.776V392.87H839.837V419H745.845Z" fill="#00EDFF"/>
<path d="M862.349 419V319.548H891.99L892.77 331.638H894.525C896.475 328.258 898.88 325.593 901.74 323.643C904.6 321.563 907.85 320.133 911.49 319.353C915.13 318.443 919.095 317.988 923.385 317.988C930.015 317.988 935.28 318.833 939.18 320.523C943.211 322.213 946.266 324.683 948.346 327.933C950.426 331.183 951.791 335.214 952.441 340.024C953.221 344.834 953.611 350.424 953.611 356.794V419H922.215V366.349C922.215 361.019 922.085 356.859 921.825 353.869C921.565 350.749 920.98 348.474 920.07 347.044C919.16 345.614 917.73 344.769 915.78 344.509C913.96 344.119 911.49 343.924 908.37 343.924C905.12 343.924 902.455 344.314 900.375 345.094C898.425 345.744 896.93 346.914 895.89 348.604C894.98 350.294 894.33 352.699 893.94 355.819C893.68 358.809 893.55 362.579 893.55 367.129V419H862.349ZM1017.34 459.171C1013.18 459.171 1008.83 459.041 1004.28 458.781C999.856 458.651 995.696 458.391 991.796 458.001C987.896 457.611 984.646 457.156 982.046 456.636V434.99C984.776 435.12 987.701 435.185 990.821 435.185C993.941 435.315 997.061 435.38 1000.18 435.38C1003.43 435.38 1006.49 435.38 1009.35 435.38C1015.72 435.38 1020.66 435.12 1024.17 434.6C1027.81 434.21 1030.47 433.235 1032.16 431.675C1033.98 430.245 1035.09 428.035 1035.48 425.045C1035.87 422.185 1036.06 418.285 1036.06 413.345V406.325H1034.5C1032.55 409.705 1030.15 412.305 1027.29 414.125C1024.56 415.815 1021.5 416.985 1018.12 417.635C1014.74 418.285 1011.1 418.61 1007.2 418.61C1001.22 418.61 996.151 417.83 991.991 416.27C987.831 414.58 984.386 411.915 981.656 408.275C979.056 404.505 977.171 399.37 976.001 392.87C974.831 386.369 974.246 378.244 974.246 368.494C974.246 358.614 974.831 350.424 976.001 343.924C977.301 337.424 979.251 332.288 981.851 328.518C984.451 324.748 987.831 322.083 991.991 320.523C996.151 318.833 1001.16 317.988 1007.01 317.988C1010.65 317.988 1014.22 318.378 1017.73 319.158C1021.37 319.808 1024.69 321.108 1027.68 323.058C1030.8 325.008 1033.33 327.868 1035.28 331.638H1036.84L1037.62 319.548H1067.46V407.69C1067.46 416.4 1067 424.005 1066.09 430.505C1065.18 437.005 1063.1 442.335 1059.85 446.495C1056.73 450.786 1051.79 453.971 1045.03 456.051C1038.4 458.131 1029.17 459.171 1017.34 459.171ZM1020.85 393.065C1024.62 393.065 1027.48 392.675 1029.43 391.895C1031.51 390.985 1033.01 389.424 1033.92 387.214C1034.83 385.134 1035.41 382.599 1035.67 379.609C1035.93 376.489 1036.06 372.784 1036.06 368.494C1036.06 364.334 1035.93 360.694 1035.67 357.574C1035.54 354.454 1034.96 351.919 1033.92 349.969C1033.01 347.499 1031.51 345.874 1029.43 345.094C1027.48 344.184 1024.62 343.729 1020.85 343.729C1017.34 343.729 1014.55 343.989 1012.47 344.509C1010.39 344.899 1008.83 345.874 1007.79 347.434C1006.88 348.994 1006.29 351.464 1006.03 354.844C1005.77 358.224 1005.64 362.774 1005.64 368.494C1005.64 374.214 1005.77 378.699 1006.03 381.949C1006.29 385.199 1006.88 387.669 1007.79 389.359C1008.83 390.92 1010.39 391.96 1012.47 392.48C1014.55 392.87 1017.34 393.065 1020.85 393.065ZM1091.24 299.268V274.112H1123.42V299.268H1091.24ZM1091.63 419V319.548H1123.22V419H1091.63ZM1147.43 419V319.548H1177.07L1177.85 331.638H1179.6C1181.55 328.258 1183.96 325.593 1186.82 323.643C1189.68 321.563 1192.93 320.133 1196.57 319.353C1200.21 318.443 1204.17 317.988 1208.46 317.988C1215.09 317.988 1220.36 318.833 1224.26 320.523C1228.29 322.213 1231.34 324.683 1233.42 327.933C1235.5 331.183 1236.87 335.214 1237.52 340.024C1238.3 344.834 1238.69 350.424 1238.69 356.794V419H1207.29V366.349C1207.29 361.019 1207.16 356.859 1206.9 353.869C1206.64 350.749 1206.06 348.474 1205.15 347.044C1204.24 345.614 1202.81 344.769 1200.86 344.509C1199.04 344.119 1196.57 343.924 1193.45 343.924C1190.2 343.924 1187.53 344.314 1185.45 345.094C1183.5 345.744 1182.01 346.914 1180.97 348.604C1180.06 350.294 1179.41 352.699 1179.02 355.819C1178.76 358.809 1178.63 362.579 1178.63 367.129V419H1147.43ZM1309.05 420.56C1299.69 420.56 1291.95 419.975 1285.84 418.805C1279.73 417.635 1274.86 415.815 1271.22 413.345C1267.71 410.745 1265.04 407.43 1263.22 403.4C1261.53 399.37 1260.43 394.56 1259.91 388.969C1259.52 383.379 1259.32 376.879 1259.32 369.469C1259.32 360.499 1259.71 352.764 1260.49 346.264C1261.4 339.764 1263.35 334.434 1266.34 330.273C1269.33 326.113 1273.95 323.058 1280.19 321.108C1286.56 319.028 1295.14 317.988 1305.93 317.988C1314.64 317.988 1321.73 318.638 1327.19 319.938C1332.65 321.108 1336.94 322.993 1340.06 325.593C1343.31 328.063 1345.58 331.313 1346.88 335.344C1348.31 339.374 1349.22 344.249 1349.61 349.969C1350 355.559 1350.2 362.059 1350.2 369.469V377.074H1290.33C1290.33 381.494 1290.52 385.069 1290.91 387.799C1291.3 390.4 1292.34 392.35 1294.03 393.65C1295.72 394.95 1298.32 395.86 1301.83 396.38C1305.35 396.77 1310.22 396.965 1316.46 396.965C1318.93 396.965 1321.86 396.9 1325.24 396.77C1328.62 396.64 1332.13 396.445 1335.77 396.185C1339.54 395.925 1343.05 395.665 1346.3 395.405V417.245C1343.44 417.895 1339.93 418.48 1335.77 419C1331.74 419.52 1327.38 419.91 1322.7 420.17C1318.02 420.43 1313.47 420.56 1309.05 420.56ZM1320.75 364.009V360.889C1320.75 356.209 1320.49 352.504 1319.97 349.774C1319.58 347.044 1318.8 345.029 1317.63 343.729C1316.59 342.299 1315.1 341.389 1313.15 340.999C1311.2 340.609 1308.73 340.414 1305.74 340.414C1302.35 340.414 1299.62 340.674 1297.54 341.194C1295.59 341.584 1294.1 342.494 1293.06 343.924C1292.02 345.354 1291.3 347.434 1290.91 350.164C1290.52 352.894 1290.33 356.469 1290.33 360.889H1324.07L1320.75 364.009ZM1417.6 420.56C1408.24 420.56 1400.5 419.975 1394.39 418.805C1388.28 417.635 1383.41 415.815 1379.77 413.345C1376.26 410.745 1373.59 407.43 1371.77 403.4C1370.08 399.37 1368.98 394.56 1368.46 388.969C1368.07 383.379 1367.87 376.879 1367.87 369.469C1367.87 360.499 1368.26 352.764 1369.04 346.264C1369.95 339.764 1371.9 334.434 1374.89 330.273C1377.88 326.113 1382.5 323.058 1388.74 321.108C1395.11 319.028 1403.69 317.988 1414.48 317.988C1423.19 317.988 1430.27 318.638 1435.73 319.938C1441.19 321.108 1445.48 322.993 1448.6 325.593C1451.85 328.063 1454.13 331.313 1455.43 335.344C1456.86 339.374 1457.77 344.249 1458.16 349.969C1458.55 355.559 1458.74 362.059 1458.74 369.469V377.074H1398.88C1398.88 381.494 1399.07 385.069 1399.46 387.799C1399.85 390.4 1400.89 392.35 1402.58 393.65C1404.27 394.95 1406.87 395.86 1410.38 396.38C1413.89 396.77 1418.77 396.965 1425.01 396.965C1427.48 396.965 1430.4 396.9 1433.78 396.77C1437.16 396.64 1440.67 396.445 1444.31 396.185C1448.08 395.925 1451.59 395.665 1454.84 395.405V417.245C1451.98 417.895 1448.47 418.48 1444.31 419C1440.28 419.52 1435.93 419.91 1431.25 420.17C1426.57 420.43 1422.02 420.56 1417.6 420.56ZM1429.3 364.009V360.889C1429.3 356.209 1429.04 352.504 1428.52 349.774C1428.13 347.044 1427.35 345.029 1426.18 343.729C1425.14 342.299 1423.64 341.389 1421.69 340.999C1419.74 340.609 1417.27 340.414 1414.28 340.414C1410.9 340.414 1408.17 340.674 1406.09 341.194C1404.14 341.584 1402.65 342.494 1401.61 343.924C1400.57 345.354 1399.85 347.434 1399.46 350.164C1399.07 352.894 1398.88 356.469 1398.88 360.889H1432.61L1429.3 364.009ZM1479.73 419V319.548H1509.37L1510.15 336.514H1511.91C1513.73 331.703 1516 327.933 1518.73 325.203C1521.59 322.473 1525.04 320.588 1529.07 319.548C1533.1 318.508 1537.78 317.988 1543.11 317.988V346.654C1534.92 346.654 1528.48 347.694 1523.8 349.774C1519.12 351.854 1515.81 355.429 1513.86 360.499C1511.91 365.439 1510.93 372.394 1510.93 381.364V419H1479.73ZM1559.32 299.268V274.112H1591.5V299.268H1559.32ZM1559.71 419V319.548H1591.31V419H1559.71ZM1615.51 419V319.548H1645.15L1645.93 331.638H1647.69C1649.64 328.258 1652.04 325.593 1654.9 323.643C1657.76 321.563 1661.01 320.133 1664.65 319.353C1668.29 318.443 1672.26 317.988 1676.55 317.988C1683.18 317.988 1688.44 318.833 1692.34 320.523C1696.37 322.213 1699.43 324.683 1701.51 327.933C1703.59 331.183 1704.95 335.214 1705.6 340.024C1706.38 344.834 1706.77 350.424 1706.77 356.794V419H1675.38V366.349C1675.38 361.019 1675.25 356.859 1674.99 353.869C1674.73 350.749 1674.14 348.474 1673.23 347.044C1672.32 345.614 1670.89 344.769 1668.94 344.509C1667.12 344.119 1664.65 343.924 1661.53 343.924C1658.28 343.924 1655.62 344.314 1653.54 345.094C1651.59 345.744 1650.09 346.914 1649.05 348.604C1648.14 350.294 1647.49 352.699 1647.1 355.819C1646.84 358.809 1646.71 362.579 1646.71 367.129V419H1615.51ZM1770.5 459.171C1766.34 459.171 1761.99 459.041 1757.44 458.781C1753.02 458.651 1748.86 458.391 1744.96 458.001C1741.06 457.611 1737.81 457.156 1735.21 456.636V434.99C1737.94 435.12 1740.86 435.185 1743.98 435.185C1747.1 435.315 1750.22 435.38 1753.34 435.38C1756.59 435.38 1759.65 435.38 1762.51 435.38C1768.88 435.38 1773.82 435.12 1777.33 434.6C1780.97 434.21 1783.63 433.235 1785.32 431.675C1787.14 430.245 1788.25 428.035 1788.64 425.045C1789.03 422.185 1789.22 418.285 1789.22 413.345V406.325H1787.66C1785.71 409.705 1783.31 412.305 1780.45 414.125C1777.72 415.815 1774.66 416.985 1771.28 417.635C1767.9 418.285 1764.26 418.61 1760.36 418.61C1754.38 418.61 1749.31 417.83 1745.15 416.27C1740.99 414.58 1737.55 411.915 1734.82 408.275C1732.22 404.505 1730.33 399.37 1729.16 392.87C1727.99 386.369 1727.41 378.244 1727.41 368.494C1727.41 358.614 1727.99 350.424 1729.16 343.924C1730.46 337.424 1732.41 332.288 1735.01 328.518C1737.61 324.748 1740.99 322.083 1745.15 320.523C1749.31 318.833 1754.32 317.988 1760.17 317.988C1763.81 317.988 1767.38 318.378 1770.89 319.158C1774.53 319.808 1777.85 321.108 1780.84 323.058C1783.96 325.008 1786.49 327.868 1788.44 331.638H1790L1790.78 319.548H1820.62V407.69C1820.62 416.4 1820.17 424.005 1819.26 430.505C1818.35 437.005 1816.27 442.335 1813.02 446.495C1809.89 450.786 1804.95 453.971 1798.19 456.051C1791.56 458.131 1782.33 459.171 1770.5 459.171ZM1774.01 393.065C1777.78 393.065 1780.64 392.675 1782.59 391.895C1784.67 390.985 1786.17 389.424 1787.08 387.214C1787.99 385.134 1788.57 382.599 1788.83 379.609C1789.09 376.489 1789.22 372.784 1789.22 368.494C1789.22 364.334 1789.09 360.694 1788.83 357.574C1788.7 354.454 1788.12 351.919 1787.08 349.969C1786.17 347.499 1784.67 345.874 1782.59 345.094C1780.64 344.184 1777.78 343.729 1774.01 343.729C1770.5 343.729 1767.71 343.989 1765.63 344.509C1763.55 344.899 1761.99 345.874 1760.95 347.434C1760.04 348.994 1759.45 351.464 1759.19 354.844C1758.93 358.224 1758.8 362.774 1758.8 368.494C1758.8 374.214 1758.93 378.699 1759.19 381.949C1759.45 385.199 1760.04 387.669 1760.95 389.359C1761.99 390.92 1763.55 391.96 1765.63 392.48C1767.71 392.87 1770.5 393.065 1774.01 393.065Z" fill="url(#paint1_linear_81_6216)"/>
<path d="M772.171 617V510.138H735.51V482.838H842.957V510.138H806.101V617H772.171Z" fill="#00EDFF"/>
<path d="M889.336 618.56C879.976 618.56 872.24 617.975 866.13 616.805C860.02 615.635 855.145 613.815 851.505 611.345C847.995 608.745 845.33 605.43 843.51 601.4C841.82 597.37 840.715 592.56 840.195 586.969C839.805 581.379 839.61 574.879 839.61 567.469C839.61 558.499 840 550.764 840.78 544.264C841.69 537.764 843.64 532.434 846.63 528.273C849.62 524.113 854.235 521.058 860.475 519.108C866.845 517.028 875.426 515.988 886.216 515.988C894.926 515.988 902.011 516.638 907.471 517.938C912.931 519.108 917.221 520.993 920.341 523.593C923.591 526.063 925.866 529.313 927.166 533.344C928.596 537.374 929.506 542.249 929.896 547.969C930.286 553.559 930.481 560.059 930.481 567.469V575.074H870.615C870.615 579.494 870.81 583.069 871.2 585.799C871.59 588.4 872.63 590.35 874.32 591.65C876.011 592.95 878.611 593.86 882.121 594.38C885.631 594.77 890.506 594.965 896.746 594.965C899.216 594.965 902.141 594.9 905.521 594.77C908.901 594.64 912.411 594.445 916.051 594.185C919.821 593.925 923.331 593.665 926.581 593.405V615.245C923.721 615.895 920.211 616.48 916.051 617C912.021 617.52 907.666 617.91 902.986 618.17C898.306 618.43 893.756 618.56 889.336 618.56ZM901.036 562.009V558.889C901.036 554.209 900.776 550.504 900.256 547.774C899.866 545.044 899.086 543.029 897.916 541.729C896.876 540.299 895.381 539.389 893.431 538.999C891.481 538.609 889.011 538.414 886.021 538.414C882.641 538.414 879.911 538.674 877.831 539.194C875.881 539.584 874.385 540.494 873.345 541.924C872.305 543.354 871.59 545.434 871.2 548.164C870.81 550.894 870.615 554.469 870.615 558.889H904.351L901.036 562.009ZM975.652 618.56C969.412 618.56 964.147 617.585 959.857 615.635C955.567 613.685 952.317 610.5 950.107 606.08C948.027 601.66 946.987 595.875 946.987 588.725C946.987 581.184 947.832 575.204 949.522 570.784C951.342 566.234 954.527 562.984 959.077 561.034C963.627 559.084 970.062 558.109 978.382 558.109C979.552 558.109 981.177 558.174 983.257 558.304C985.467 558.304 987.937 558.369 990.667 558.499C993.397 558.499 996.128 558.564 998.858 558.694C1001.59 558.694 1004.06 558.759 1006.27 558.889V555.184C1006.27 551.414 1005.94 548.489 1005.29 546.409C1004.77 544.329 1003.67 542.834 1001.98 541.924C1000.42 540.884 998.013 540.299 994.762 540.169C991.512 539.909 987.222 539.779 981.892 539.779C978.902 539.779 975.587 539.844 971.947 539.974C968.437 540.104 964.927 540.299 961.417 540.559C958.037 540.689 955.177 540.884 952.837 541.144V519.108C958.167 518.198 964.147 517.483 970.777 516.963C977.537 516.313 984.622 515.988 992.032 515.988C1000.35 515.988 1007.24 516.508 1012.7 517.548C1018.29 518.588 1022.78 520.213 1026.16 522.423C1029.54 524.503 1032.01 527.168 1033.57 530.418C1035.26 533.669 1036.36 537.504 1036.88 541.924C1037.4 546.344 1037.66 551.349 1037.66 556.939V617H1007.63L1006.85 605.3H1005.29C1002.82 609.2 999.963 612.125 996.713 614.075C993.462 616.025 990.017 617.26 986.377 617.78C982.737 618.3 979.162 618.56 975.652 618.56ZM990.472 596.33C992.812 596.33 994.827 596.2 996.518 595.94C998.338 595.55 999.833 594.965 1001 594.185C1002.3 593.275 1003.34 592.17 1004.12 590.87C1004.77 589.44 1005.29 587.684 1005.68 585.604C1006.07 583.524 1006.27 581.054 1006.27 578.194V574.489H988.132C984.882 574.489 982.412 574.749 980.722 575.269C979.032 575.659 977.862 576.699 977.212 578.389C976.692 579.949 976.432 582.419 976.432 585.799C976.432 588.66 976.757 590.87 977.407 592.43C978.057 593.99 979.357 595.03 981.307 595.55C983.387 596.07 986.442 596.33 990.472 596.33ZM1061.92 617V517.548H1091.56L1092.34 529.638H1094.1C1095.92 526.258 1098.19 523.593 1100.92 521.643C1103.78 519.563 1106.97 518.133 1110.48 517.353C1113.99 516.443 1117.76 515.988 1121.79 515.988C1129.59 515.988 1135.5 517.093 1139.53 519.303C1143.56 521.383 1146.42 524.828 1148.11 529.638H1149.87C1151.82 526.258 1154.22 523.593 1157.08 521.643C1159.94 519.563 1163.13 518.133 1166.64 517.353C1170.28 516.443 1174.11 515.988 1178.14 515.988C1186.6 515.988 1192.84 517.483 1196.87 520.473C1201.03 523.463 1203.76 527.818 1205.06 533.539C1206.49 539.259 1207.2 546.344 1207.2 554.794V617H1176V564.349C1176 559.019 1175.8 554.859 1175.41 551.869C1175.15 548.749 1174.63 546.474 1173.85 545.044C1173.07 543.614 1171.84 542.769 1170.15 542.509C1168.46 542.119 1166.25 541.924 1163.52 541.924C1160.53 541.924 1158.12 542.314 1156.3 543.094C1154.48 543.744 1153.12 544.914 1152.21 546.604C1151.3 548.294 1150.71 550.634 1150.45 553.624C1150.32 556.614 1150.26 560.449 1150.26 565.129V617H1118.86V564.349C1118.86 559.019 1118.73 554.859 1118.47 551.869C1118.21 548.749 1117.63 546.474 1116.72 545.044C1115.94 543.614 1114.7 542.769 1113.01 542.509C1111.45 542.119 1109.31 541.924 1106.58 541.924C1103.59 541.924 1101.18 542.314 1099.36 543.094C1097.54 543.744 1096.18 544.914 1095.27 546.604C1094.36 548.294 1093.77 550.699 1093.51 553.819C1093.25 556.809 1093.12 560.579 1093.12 565.129V617H1061.92Z" fill="url(#paint2_linear_81_6216)"/>
<path d="M47.8348 276.468L330.097 71.3924L612.359 276.468L504.545 608.287H155.649L47.8348 276.468Z" fill="white" stroke="black" stroke-width="18.4332"/>
<path d="M122.596 303.545L329.521 153.205L536.446 303.545L457.408 546.801H201.634L122.596 303.545Z" stroke="#05AAFF" stroke-width="57.6038"/>
<path d="M371.03 368.945C371.03 368.945 508.182 502.21 522.006 615.568C410.86 715.102 201.839 671.97 201.839 671.97C201.839 671.97 336.763 599.532 371.03 368.945Z" fill="black"/>
<path fill-rule="evenodd" clip-rule="evenodd" d="M269.127 680.093C259.249 679.476 250.15 678.669 242.046 677.804C285.899 649.537 326.254 596.579 354.757 540.282C370.871 508.456 382.938 476.057 389.602 447.296C394.335 426.864 396.212 408.82 395.202 394.307C400.48 400.119 406.395 406.799 412.71 414.208C411.859 425.896 409.828 438.392 406.84 451.289C399.805 481.656 387.191 515.396 370.544 548.275C345.111 598.508 309.652 647.909 269.127 680.093Z" fill="#05AAFF"/>
<path d="M341.223 411.102C341.223 411.102 256.863 582.722 153.325 630.9C24.3164 555.951 0.745633 343.832 0.745633 343.832C0.745633 343.832 111.332 449.767 341.223 411.102Z" fill="black"/>
<path fill-rule="evenodd" clip-rule="evenodd" d="M13.8142 410.337C11.3482 400.751 9.3036 391.848 7.62252 383.873C48.0569 416.846 110.894 438.861 173.243 448.572C208.492 454.062 243.033 455.527 272.446 452.977C293.34 451.165 311.081 447.374 324.571 441.929C320.675 448.744 316.149 456.434 311.055 464.73C299.676 467.532 287.164 469.462 273.975 470.606C242.92 473.298 206.934 471.728 170.52 466.056C114.886 457.391 56.9455 438.933 13.8142 410.337Z" fill="#05AAFF"/>
<path d="M292.71 395.339C292.71 395.339 103.421 368.142 25.6067 284.559C57.0212 138.704 251.475 50.7386 251.475 50.7386C251.475 50.7386 184.897 188.648 292.71 395.339Z" fill="black"/>
<path fill-rule="evenodd" clip-rule="evenodd" d="M192.263 83.7188C200.617 78.4114 208.453 73.7157 215.518 69.6526C196.654 118.297 195.135 184.861 205.166 247.16C210.837 282.38 220.117 315.684 231.632 342.869C239.812 362.18 248.9 377.882 258.247 389.029C250.561 387.429 241.849 385.502 232.385 383.22C226.204 373.264 220.502 361.961 215.338 349.77C203.181 321.068 193.554 286.357 187.696 249.973C178.745 194.384 178.395 133.576 192.263 83.7188Z" fill="#05AAFF"/>
<path d="M292.71 344.33C292.71 344.33 260.083 155.9 315.529 56.0662C463.953 40.8717 607.703 198.625 607.703 198.625C607.703 198.625 455.969 177.923 292.71 344.33Z" fill="black"/>
<path fill-rule="evenodd" clip-rule="evenodd" d="M558.039 152.503C565.669 158.809 572.556 164.81 578.603 170.273C526.511 167.365 462.734 186.489 406.584 215.28C374.841 231.557 346.035 250.675 323.738 270.027C307.9 283.774 295.775 297.269 288.063 309.603C287.209 301.799 286.35 292.918 285.595 283.212C293.154 274.257 302.141 265.341 312.139 256.663C335.68 236.231 365.717 216.35 398.51 199.535C448.613 173.844 506.337 154.721 558.039 152.503Z" fill="#05AAFF"/>
<path d="M341.223 328.567C341.223 328.567 510.348 239.309 622.429 261.191C682.746 397.655 577.134 583.118 577.134 583.118C577.134 583.118 549.935 432.413 341.223 328.567Z" fill="black"/>
<path fill-rule="evenodd" clip-rule="evenodd" d="M605.652 521.632C602.013 530.836 598.434 539.241 595.107 546.681C581.775 496.239 543.879 441.494 499.146 396.989C473.856 371.829 446.773 350.341 421.478 335.116C403.509 324.3 386.928 316.94 372.814 313.416C379.972 310.192 388.153 306.631 397.151 302.914C408.004 307.335 419.26 313.128 430.603 319.955C457.31 336.03 485.5 358.453 511.626 384.445C551.541 424.156 587.566 473.146 605.652 521.632Z" fill="#05AAFF"/>
<path d="M414 381.5C414 428.168 376.168 466 329.5 466C282.832 466 245 428.168 245 381.5C245 334.832 282.832 297 329.5 297C376.168 297 414 334.832 414 381.5Z" fill="white" stroke="black" stroke-width="70"/>
<defs>
<linearGradient id="paint0_linear_81_6216" x1="1366" y1="52" x2="1366" y2="279" gradientUnits="userSpaceOnUse">
<stop offset="0.54" stop-color="white"/>
<stop offset="0.55" stop-color="#00EDFF"/>
</linearGradient>
<linearGradient id="paint1_linear_81_6216" x1="1366" y1="250" x2="1366" y2="477" gradientUnits="userSpaceOnUse">
<stop offset="0.54" stop-color="white"/>
<stop offset="0.55" stop-color="#00EDFF"/>
</linearGradient>
<linearGradient id="paint2_linear_81_6216" x1="1366" y1="448" x2="1366" y2="675" gradientUnits="userSpaceOnUse">
<stop offset="0.54" stop-color="white"/>
<stop offset="0.55" stop-color="#00EDFF"/>
</linearGradient>
</defs>
</svg>
